<svg id="_x33_0" enable-background="new 0 0 64 64" height="512" viewBox="0 0 64 64" width="512" xmlns="http://www.w3.org/2000/svg"><g><path style="fill: #4184BF" d="m24 24c1.654 0 3-1.346 3-3h-2c0 .552-.448 1-1 1s-1-.448-1-1h-2c0 1.654 1.346 3 3 3z"/><path style="fill: #4184BF" d="m47 19v2h2c2.206 0 4-1.794 4-4h-2c0 1.103-.897 2-2 2z"/><circle style="fill: #4184BF" cx="46" cy="14" r="1"/><circle style="fill: #4184BF" cx="52" cy="14" r="1"/><path style="fill: #4184BF" d="m49.707 11.293c-1.085-1.085-1.707-2.587-1.707-4.121v-.172h-2v.172c0 2.061.836 4.078 2.293 5.535z"/><path style="fill: #4184BF" d="m62.206 31.507c-2.198-3.299-5.651-5.59-9.524-6.379l-.165-.33c2.575-.674 4.483-3.014 4.483-5.798 2.206 0 4-1.794 4-4 0-.821-.25-1.584-.676-2.22l.432-1.686c.162-.643.244-1.306.244-1.971 0-4.479-3.644-8.123-8.123-8.123h-7.754c-4.479 0-8.123 3.644-8.123 8.123 0 .665.082 1.328.242 1.97l.425 1.703c-.42.632-.667 1.389-.667 2.204 0 2.206 1.794 4 4 4 0 2.784 1.908 5.124 4.483 5.798l-.161.322c-2.805.567-5.349 1.897-7.415 3.88h-8.907v-1.382l2-1v-.618c0-3.275-1.754-6.962-2.605-8.559 1.587-1.285 2.605-3.245 2.605-5.441 0-3.859-3.141-7-7-7h-12.472c-4.702 0-8.528 3.826-8.528 8.528 0 1.65.492 3.206 1.357 4.521l-.104.209c-.819 1.638-1.253 3.473-1.253 5.307 0 3.716 1.774 7.266 4.748 9.495l3.252 2.44v3.5h-.219c-.92 0-1.718.623-1.94 1.516l-.723 2.891c-4.465 3.332-7.118 8.612-7.118 14.196v5.397h44.939l1.037-16.591c1.286-1.428 2.024-3.311 2.024-5.237v-4.848c0-1.362-.825-2.532-2-3.045v-2.279c0-.284-.061-.553-.168-.798l2.168-1.084 4.454 2.227 1.639-3.343c2.189 1.001 4.096 2.584 5.449 4.615l.626.938 1.664-1.109zm-11.495-5.85-1.711 1.141-1.711-1.141.329-.657h2.764zm-5.711 7.421c-1.143.237-2.099 1.056-2.479 2.196l-.575 1.726h-6.946v2h4.184c-.112.314-.184.648-.184 1v1h-8v2h8v2h-8v2h7.437l-3.888 8.424c-.979-3.55-2.901-6.692-5.549-9.142v-15.282h4v2c0 1.103.897 2 2 2h4c1.103 0 2-.897 2-2v-2h4zm-22.781 5.922h-1.219v-2h1c1.958 0 3.728-.81 5-2.111v9.761c-.683-.482-1.39-.935-2.14-1.332l-.701-2.803c-.222-.892-1.02-1.515-1.94-1.515zm.911-8h3.769c-.207 1.016-.729 1.914-1.451 2.605-1.15-.455-2.005-1.427-2.318-2.605zm11.87 0h4v2h-4zm12.011-3.124-1.557.779-.664-1.354c.329-.092.663-.171 1.002-.237zm9.989-10.876v-4c1.103 0 2 .897 2 2s-.897 2-2 2zm-18-2c0-1.103.897-2 2-2h.042c-.025.223-.042.448-.042.676v3.324c-1.103 0-2-.897-2-2zm4 4v-5.324c0-1.34.666-2.584 1.781-3.328l.773-.516-1.109-1.664-.773.516c-.885.591-1.575 1.395-2.035 2.316h-.637c-.582 0-1.131.131-1.63.355l-.187-.748c-.121-.483-.183-.983-.183-1.484 0-3.376 2.747-6.123 6.123-6.123h7.754c3.376 0 6.123 2.747 6.123 6.123 0 .501-.062 1.001-.182 1.479l-.193.751c-.497-.223-1.045-.353-1.625-.353h-.808l-2.036-.814c-1.309-.525-2.156-1.775-2.156-3.186h-2c0 2.233 1.34 4.213 3.414 5.043l1.586.634v6.323c0 2.206-1.794 4-4 4h-4c-2.206 0-4-1.794-4-4zm-.099 8.989.495 1.011h-2.312c.579-.386 1.185-.724 1.817-1.011zm-37.901-4.424c0-1.322.286-2.639.803-3.856.524.458 1.105.863 1.75 1.185l.895-1.789c-2.127-1.063-3.448-3.2-3.448-5.577 0-3.599 2.929-6.528 6.528-6.528h12.472c2.757 0 5 2.243 5 5s-2.243 5-5 5h-5c-1.103 0-2-.897-2-2s.897-2 2-2h1v-2h-1c-2.206 0-4 1.794-4 4 0 .294.036.579.097.855-1.042.767-1.757 1.884-2.002 3.152-2.28.124-4.095 2.016-4.095 4.326 0 1.356.647 2.652 1.733 3.467l2.266 1.7c-.017 1.768-.458 3.487-1.286 5.035l-2.766-2.074c-2.471-1.854-3.947-4.806-3.947-7.896zm8 11.716c1.305-2.066 2-4.438 2-6.887v-.894l-3.066-2.3c-.585-.438-.934-1.137-.934-1.867 0-1.286 1.047-2.333 2.333-2.333h1.667v-1c0-.91.383-1.75 1.035-2.34.733.816 1.784 1.34 2.965 1.34h5c.946 0 1.849-.191 2.673-.533.726 1.38 2.107 4.304 2.304 6.927l-1.977.988v2.618h-6v1c0 1.937.952 3.681 2.451 4.76-.462.141-.943.24-1.451.24h-5v2h2v2h-6zm9.22 5.719.5 2h-12.439l.5-2zm-19.22 16.603c0-4.962 2.365-9.646 6.336-12.603h5.664v16h-6v-8h-2v8h-4zm24 3.397v-8h-2v8h-8v-16h6.737c4.71 2.425 8.047 6.766 9.159 11.956l.867 4.044zm8.809 0-.517-2.411 5.348-11.589h4.296l-.875 14zm11.191-19.828c0 1.4-.519 2.774-1.435 3.828h-4.565v-5c0-.552.448-1 1-1s1 .448 1 1v3h2v-3c0-.959-.46-1.804-1.162-2.353l.58-1.74c.181-.543.686-.907 1.258-.907.73 0 1.324.594 1.324 1.324zm5.546-12.517-1.557-.779 1.214-.809c.339.067.678.137 1.009.23z"/><path style="fill: #4184BF" d="m31 37h2v2h-2z"/></g></svg>