<?xml version="1.0" encoding="UTF-8"?>
<svg xmlns="http://www.w3.org/2000/svg" viewBox="0 0 64 64" width="512" height="512"><g id="outline"><path style="fill: #4184BF" d="M37.586,16,20.293,33.293a1,1,0,0,0-.221.336l-1.925,4.81-1.854,1.854a3.079,3.079,0,0,0-.582,3.58l-5.418,5.42,1.414,1.414,5.419-5.421a3.076,3.076,0,0,0,3.581-.579l1.855-1.854,4.809-1.925a1,1,0,0,0,.336-.221L45,23.414l1.293,1.293a1,1,0,0,0,1.414,0l3-3a1,1,0,0,0,0-1.414L48.414,18,51,15.414l2.293,2.293a3.121,3.121,0,1,0,4.414-4.414l-10-10a3.121,3.121,0,0,0-4.414,4.414L45.586,10,43,12.586l-2.293-2.293a1,1,0,0,0-1.414,0l-3,3a1,1,0,0,0,0,1.414ZM19.293,43.293a1.146,1.146,0,0,1-1.586,0,1.12,1.12,0,0,1,0-1.584L19,40.414,20.586,42Zm2.948-2.466-2.067-2.068,1.192-2.979,3.855,3.855ZM42,23.586l-1.293-1.293-1.414,1.414L40.586,25,39,26.586l-2.293-2.293-1.414,1.414L37.586,28,36,29.586l-1.293-1.293-1.414,1.414L34.586,31,33,32.586l-2.293-2.293-1.414,1.414L31.586,34,30,35.586l-1.293-1.293-1.414,1.414L28.586,37,27,38.586,22.414,34,39,17.414,43.586,22ZM44.707,6.293a1.121,1.121,0,0,1,1.586-1.586l10,10a1.121,1.121,0,0,1-1.586,1.586ZM47,11.414,49.586,14,47,16.586,44.414,14Zm-7,1L48.586,21,47,22.586,38.414,14Z"/><path style="fill: #4184BF" d="M9.256,52.332C8.712,52.938,6,56.059,6,58a4,4,0,0,0,8,0c0-1.941-2.712-5.062-3.256-5.668A1.031,1.031,0,0,0,9.256,52.332ZM10,60a2,2,0,0,1-2-2c0-.637.939-2.125,2-3.451,1.062,1.332,2,2.831,2,3.451A2,2,0,0,1,10,60Z"/><path style="fill: #4184BF" d="M12,19h6V16h3V10H18V7H12v3H9v6h3Zm-1-5V12h3V9h2v3h3v2H16v3H14V14Z"/><path style="fill: #4184BF" d="M15,24a10.906,10.906,0,0,0,3.457-.567l7.337,1.546A1.029,1.029,0,0,0,26,25a1,1,0,0,0,.876-1.483L24.3,18.854A10.994,10.994,0,1,0,15,24ZM15,4a8.989,8.989,0,0,1,7.32,14.221,1,1,0,0,0-.062,1.065l1.812,3.286L18.6,21.419a1.03,1.03,0,0,0-.206-.022.986.986,0,0,0-.34.06A9,9,0,1,1,15,4Z"/></g></svg>
