<svg id="_41" data-name="41" xmlns="http://www.w3.org/2000/svg" xmlns:xlink="http://www.w3.org/1999/xlink" viewBox="0 0 512 508"><defs><style>.cls-1{fill:#4184bf;}.cls-1,.cls-2{fill-rule:evenodd;}.cls-2{fill:#4bb4bf;}.cls-3{fill:url(#New_Gradient_Swatch);}.cls-4{fill:url(#linear-gradient);}.cls-5{fill:#fff;opacity:0.3;}</style><linearGradient id="New_Gradient_Swatch" x1="456.35" y1="427.88" x2="177.43" y2="148.96" gradientUnits="userSpaceOnUse"><stop offset="0" stop-color="#00b2b8"/><stop offset="0.82" stop-color="#56ced4"/></linearGradient><linearGradient id="linear-gradient" x1="109.67" y1="170.75" x2="264.31" y2="325.39" gradientUnits="userSpaceOnUse"><stop offset="0" stop-color="#00b2b8"/><stop offset="0.7" stop-color="#28c9cf"/><stop offset="0.82" stop-color="#56ced4"/></linearGradient></defs><path class="cls-1" d="M111.86,41.5c-87,59.44-131.42,169.37-102.6,277C45.76,454.66,185.75,535.48,322,499c111.29-29.82,185.6-128.73,189.15-238.21-15.4,89.85-81.36,167-175.2,192.18C207.36,487.4,75.24,411.11,40.8,282.58A240.92,240.92,0,0,1,111.86,41.5Z"/><path class="cls-2" d="M397.2,393.73c73.45-50.15,110.9-142.91,86.57-233.7C453,45.1,334.85-23.1,219.92,7.7,126,32.86,63.31,116.32,60.31,208.7A203.32,203.32,0,0,1,208.14,46.54c108.47-29.06,220,35.3,249,143.77a203.29,203.29,0,0,1-60,203.42Z"/><path class="cls-3" d="M416.73,167c-17.81-33.19-47.7-54-78-54.32H338c-21.2,0-51.19,9.54-79,52.31-27.76-42.77-57.76-52.31-79-52.31h-.72c-30.31.31-60.2,21.13-78,54.32S75.41,252.42,106,299.51c28,43.11,76.92,81.36,149.58,116.91l3.49,1.71,3.49-1.71c72.67-35.55,121.59-73.8,149.58-116.91C442.67,252.42,434.54,200.19,416.73,167ZM326,280.31a7.28,7.28,0,0,1-7.27,7.27H280.84v37.84a7.26,7.26,0,0,1-7.27,7.26H244.51a7.27,7.27,0,0,1-7.27-7.26V287.58H199.4a7.28,7.28,0,0,1-7.27-7.27V251.25A7.27,7.27,0,0,1,199.4,244h37.84V206.14a7.28,7.28,0,0,1,7.27-7.27h29.06a7.27,7.27,0,0,1,7.27,7.27v31.77l.07,6.07h37.77a7.27,7.27,0,0,1,7.27,7.27Z"/><path class="cls-4" d="M253.39,413C232,399.36,214.51,380.43,198.14,361c-17.95-21.26-35-43.53-47.52-68.39q-2.88-5.73-5.44-11.7c-9.62-22.46-15.44-47.3-12.79-71.57,4.11-37.45,28-72.84,58-94.86l1.26-.89a71.18,71.18,0,0,0-11.56-1h-.72c-30.31.31-60.2,21.13-78,54.32S75.41,252.42,106,299.51c28,43.11,76.92,81.36,149.58,116.91l3.49,1.71,1.73-.85Q257,415.24,253.39,413Z"/><path class="cls-5" d="M253.39,413C232,399.36,214.51,380.43,198.14,361c-17.95-21.26-35-43.53-47.52-68.39q-2.88-5.73-5.44-11.7c-9.62-22.46-15.44-47.3-12.79-71.57,4.11-37.45,28-72.84,58-94.86l1.26-.89a71.18,71.18,0,0,0-11.56-1h-.72c-30.31.31-60.2,21.13-78,54.32S75.41,252.42,106,299.51c28,43.11,76.92,81.36,149.58,116.91l3.49,1.71,1.73-.85Q257,415.24,253.39,413Z"/></svg>